<svg id="wave" style="transform:rotate(0deg); transition: 0.3s" viewBox="0 0 1440 490" version="1.1" xmlns="http://www.w3.org/2000/svg"><defs><linearGradient id="sw-gradient-0" x1="0" x2="0" y1="1" y2="0"><stop stop-color="rgba(81, 163, 163, 0.8)" offset="0%"></stop><stop stop-color="rgba(192, 120, 155, 0.8)" offset="100%"></stop></linearGradient></defs><path style="transform:translate(0, 0px); opacity:1" fill="url(#sw-gradient-0)" d="M0,0L24,0C48,0,96,0,144,0C192,0,240,0,288,49C336,98,384,196,432,220.5C480,245,528,196,576,196C624,196,672,245,720,228.7C768,212,816,131,864,114.3C912,98,960,147,1008,163.3C1056,180,1104,163,1152,171.5C1200,180,1248,212,1296,245C1344,278,1392,310,1440,318.5C1488,327,1536,310,1584,277.7C1632,245,1680,196,1728,155.2C1776,114,1824,82,1872,130.7C1920,180,1968,310,2016,326.7C2064,343,2112,245,2160,212.3C2208,180,2256,212,2304,253.2C2352,294,2400,343,2448,351.2C2496,359,2544,327,2592,318.5C2640,310,2688,327,2736,277.7C2784,229,2832,114,2880,65.3C2928,16,2976,33,3024,106.2C3072,180,3120,310,3168,302.2C3216,294,3264,147,3312,114.3C3360,82,3408,163,3432,204.2L3456,245L3456,490L3432,490C3408,490,3360,490,3312,490C3264,490,3216,490,3168,490C3120,490,3072,490,3024,490C2976,490,2928,490,2880,490C2832,490,2784,490,2736,490C2688,490,2640,490,2592,490C2544,490,2496,490,2448,490C2400,490,2352,490,2304,490C2256,490,2208,490,2160,490C2112,490,2064,490,2016,490C1968,490,1920,490,1872,490C1824,490,1776,490,1728,490C1680,490,1632,490,1584,490C1536,490,1488,490,1440,490C1392,490,1344,490,1296,490C1248,490,1200,490,1152,490C1104,490,1056,490,1008,490C960,490,912,490,864,490C816,490,768,490,720,490C672,490,624,490,576,490C528,490,480,490,432,490C384,490,336,490,288,490C240,490,192,490,144,490C96,490,48,490,24,490L0,490Z"></path></svg>